<svg
  viewBox="0 0 69 19"
  fill="currentColor"
  xmlns="http://www.w3.org/2000/svg"
>
  <path
    d="M0.251626 18V0.719999H4.21163V18H0.251626ZM4.21163 8.388L2.84363 7.704C2.84363 5.52 3.32363 3.756 4.28363 2.412C5.26763 1.044 6.74363 0.36 8.71163 0.36C9.57563 0.36 10.3556 0.515999 11.0516 0.827999C11.7476 1.14 12.3956 1.644 12.9956 2.34L10.4036 5.004C10.0916 4.668 9.74363 4.428 9.35963 4.284C8.97563 4.14 8.53163 4.068 8.02763 4.068C6.92363 4.068 6.01163 4.416 5.29163 5.112C4.57163 5.808 4.21163 6.9 4.21163 8.388ZM21.6438 18.36C20.1798 18.36 18.8718 18.036 17.7198 17.388C16.5918 16.74 15.7038 15.852 15.0558 14.724C14.4318 13.572 14.1198 12.252 14.1198 10.764V0.719999H18.0798V10.584C18.0798 11.424 18.2118 12.144 18.4758 12.744C18.7638 13.32 19.1718 13.764 19.6998 14.076C20.2518 14.388 20.8998 14.544 21.6438 14.544C22.7958 14.544 23.6718 14.208 24.2718 13.536C24.8958 12.84 25.2078 11.856 25.2078 10.584V0.719999H29.1678V10.764C29.1678 12.276 28.8438 13.608 28.1958 14.76C27.5718 15.888 26.6958 16.776 25.5678 17.424C24.4398 18.048 23.1318 18.36 21.6438 18.36ZM44.6334 18V8.028C44.6334 6.876 44.2614 5.928 43.5174 5.184C42.7974 4.44 41.8614 4.068 40.7094 4.068C39.9414 4.068 39.2574 4.236 38.6574 4.572C38.0574 4.908 37.5894 5.376 37.2534 5.976C36.9174 6.576 36.7494 7.26 36.7494 8.028L35.2014 7.164C35.2014 5.844 35.4894 4.68 36.0654 3.672C36.6414 2.64 37.4334 1.836 38.4414 1.26C39.4734 0.659999 40.6254 0.36 41.8974 0.36C43.1934 0.36 44.3454 0.696 45.3534 1.368C46.3614 2.016 47.1534 2.868 47.7294 3.924C48.3054 4.956 48.5934 6.036 48.5934 7.164V18H44.6334ZM32.7894 18V0.719999H36.7494V18H32.7894ZM59.4936 18.36C57.9336 18.36 56.5176 17.964 55.2456 17.172C53.9976 16.38 53.0016 15.312 52.2576 13.968C51.5376 12.6 51.1776 11.076 51.1776 9.396C51.1776 7.692 51.5376 6.168 52.2576 4.824C53.0016 3.456 53.9976 2.376 55.2456 1.584C56.5176 0.767999 57.9336 0.36 59.4936 0.36C60.8136 0.36 61.9776 0.648 62.9856 1.224C64.0176 1.776 64.8336 2.544 65.4336 3.528C66.0336 4.512 66.3336 5.628 66.3336 6.876V11.844C66.3336 13.092 66.0336 14.208 65.4336 15.192C64.8576 16.176 64.0536 16.956 63.0216 17.532C61.9896 18.084 60.8136 18.36 59.4936 18.36ZM60.1416 14.616C61.6056 14.616 62.7816 14.124 63.6696 13.14C64.5816 12.156 65.0376 10.896 65.0376 9.36C65.0376 8.328 64.8336 7.416 64.4256 6.624C64.0176 5.832 63.4416 5.22 62.6976 4.788C61.9776 4.332 61.1256 4.104 60.1416 4.104C59.1816 4.104 58.3296 4.332 57.5856 4.788C56.8656 5.22 56.2896 5.832 55.8576 6.624C55.4496 7.416 55.2456 8.328 55.2456 9.36C55.2456 10.392 55.4496 11.304 55.8576 12.096C56.2896 12.888 56.8656 13.512 57.5856 13.968C58.3296 14.4 59.1816 14.616 60.1416 14.616ZM64.7856 18V13.356L65.4696 9.144L64.7856 4.968V0.719999H68.7456V18H64.7856Z"
  />
</svg>
